<svg xmlns="http://www.w3.org/2000/svg" xmlns:xlink="http://www.w3.org/1999/xlink" xmlns:lucid="lucid" width="1034.94" height="852.69"><g transform="translate(-2717.999999946905 2662.000000053095)" lucid:page-tab-id="0_0"><path d="M3020-2654a6 6 0 0 1 6-6h148a6 6 0 0 1 6 6v148a6 6 0 0 1-6 6h-148a6 6 0 0 1-6-6z" stroke="#000" stroke-width="4" fill="#fff"/><use xlink:href="#a" transform="matrix(1,0,0,1,3025,-2655) translate(62.955729166666664 86.77083333333334)"/><path d="M3400-2654a6 6 0 0 1 6-6h148a6 6 0 0 1 6 6v148a6 6 0 0 1-6 6h-148a6 6 0 0 1-6-6z" stroke="#000" stroke-width="4" fill="#fff"/><use xlink:href="#b" transform="matrix(1,0,0,1,3405,-2655) translate(40.553385416666664 44.583333333333336)"/><use xlink:href="#c" transform="matrix(1,0,0,1,3405,-2655) translate(20.703124999999993 83.30208333333334)"/><use xlink:href="#d" transform="matrix(1,0,0,1,3405,-2655) translate(32.350260416666664 122.02083333333334)"/><path d="M3400-2356a4 4 0 0 1 4-4h152a4 4 0 0 1 4 4v72a4 4 0 0 1-4 4h-152a4 4 0 0 1-4-4z" stroke="#000" stroke-width="4" fill="#dfe3e8"/><use xlink:href="#e" transform="matrix(1,0,0,1,3405,-2355) translate(37.78645833333333 45.520833333333336)"/><path d="M3381.87-2374.4l-2.16 3.3-7.05-4.6 2.16-3.32zm-21.18-13.85l-2.17 3.3-14.12-9.23 2.17-3.3zm-28.25-18.46l-2.16 3.3-14.13-9.24 2.16-3.3zm-98.35-64.33v4.72l-2.65-1.74 2.16-3.3zm-14.6-9.55l-2.17 3.3-14.12-9.22 2.17-3.3zm-28.25-18.46l-2.16 3.3-7.07-4.6 2.16-3.32z" stroke="#3a414a" stroke-width=".05" fill="#3a414a"/><path d="M3184.24-2503.63l-2.17 3.3-1.56-1.02.63-1 .48-1.18.3-1.22.04-.38z" fill="#3a414a"/><path stroke="#3a414a" stroke-width=".05" fill="#3a414a"/><path d="M3394.4-2363.84l-14.48-3.93 5.08-7.76z" fill="#3a414a"/><path d="M3399.75-2360.35l-22.97-6.23 8.05-12.3zm-16.68-8.62l5.98 1.63-3.9-4.84z" stroke="#3a414a" stroke-width=".05" fill="#3a414a"/><use xlink:href="#f" transform="matrix(1,0,0,1,3234.097112579722,-2471.6879349062306) translate(15.581171875000003 19.375)"/><use xlink:href="#g" transform="matrix(1,0,0,1,3234.097112579722,-2471.6879349062306) translate(0.005000000000002558 48.4140625)"/><path d="M3475.43-2198.1a7 7 0 0 1 9.1 0l95.9 82.2a5.14 5.14 0 0 1 0 7.8l-95.9 82.2a7 7 0 0 1-9.1 0l-95.9-82.2a5.14 5.14 0 0 1 0-7.8z" stroke="#000" stroke-width="4" fill="#fff"/><use xlink:href="#h" transform="matrix(1,0,0,1,3379.982847660346,-2196.999923044406) translate(65.97505208333332 73.64583333333334)"/><use xlink:href="#i" transform="matrix(1,0,0,1,3379.982847660346,-2196.999923044406) translate(111.82140625 73.64583333333334)"/><use xlink:href="#j" transform="matrix(1,0,0,1,3379.982847660346,-2196.999923044406) translate(41.346145833333345 112.36458333333334)"/><path d="M3480-2276v51.48" stroke="#3a414a" stroke-width="4" fill="none"/><path d="M3481.97-2275.95h-3.94v-2.05h3.94z" stroke="#3a414a" stroke-width=".05" fill="#3a414a"/><path d="M3479.98-2208.26l-4.63-14.26h9.27z" stroke="#3a414a" stroke-width="4" fill="#3a414a"/><path d="M3480-2496v111.26" stroke="#3a414a" stroke-width="4" fill="none"/><path d="M3481.97-2495.95h-3.94v-2.05h3.94z" stroke="#3a414a" stroke-width=".05" fill="#3a414a"/><path d="M3480-2368.47l-4.64-14.27h9.28z" stroke="#3a414a" stroke-width="4" fill="#3a414a"/><path d="M3100-2496l-.25 540.25" stroke="#3a414a" stroke-width="4" fill="none"/><path d="M3101.97-2495.95h-3.95v-2.05h3.95z" stroke="#3a414a" stroke-width=".05" fill="#3a414a"/><path d="M3099.74-1939.5l-4.63-14.26h9.28z" stroke="#3a414a" stroke-width="4" fill="#3a414a"/><path d="M3483.26-1955.8l-3.95.1-.4-20.82h3.95zm-1.04-53h-3.95l-.22-11.38 3.95-.07z" stroke="#3a414a" stroke-width=".05" fill="#3a414a"/><path d="M3478.7-2022.3l1.28.1 1.28-.1.7-.16.04 2.26-3.95.08-.05-2.34z" fill="#3a414a"/><path stroke="#3a414a" stroke-width=".05" fill="#3a414a"/><path d="M3481.6-1939.5l-4.9-14.16 9.26-.18z" fill="#3a414a"/><path d="M3481.73-1933.1l-7.8-22.48 14.7-.3zm-2.28-18.64l2.03 5.86 1.8-5.93z" stroke="#3a414a" stroke-width=".05" fill="#3a414a"/><use xlink:href="#k" transform="matrix(1,0,0,1,3456.864431052009,-2008.789299411368) translate(0 25.833333333333336)"/><path d="M3688.43-1953.75h-3.95v-26.62h3.95zm-6.72-160.13l1.23.3 1.15.47 1.07.64.95.82.82.95.65 1.08.48 1.15.3 1.22.08 1.17v93.44h-3.95v-93.28l-.05-.7-.15-.62-.24-.58-.33-.54-.4-.48-.48-.4-.54-.34-.58-.24-.6-.15-.72-.06h-94.15v-3.94h94.3z" stroke="#3a414a" stroke-width=".05" fill="#3a414a"/><path d="M3586.28-2110.03h-2.35l.2-.74.1-1.23-.1-1.23-.2-.74h2.35z" fill="#3a414a"/><path stroke="#3a414a" stroke-width=".05" fill="#3a414a"/><path d="M3686.46-1937.5l-4.64-14.25h9.27z" fill="#3a414a"/><path d="M3686.46-1931.1l-7.35-22.63h14.7zm-1.92-18.68l1.92 5.9 1.92-5.9z" stroke="#3a414a" stroke-width=".05" fill="#3a414a"/><use xlink:href="#l" transform="matrix(1,0,0,1,3668.1193580770127,-2012.6369140097113) translate(0 25.833333333333336)"/><path d="M3619.98-1925.02a6 6 0 0 1 6-6h120.96a6 6 0 0 1 6 6v30.28a6 6 0 0 1-6 6h-120.96a6 6 0 0 1-6-6z" fill="none"/><use xlink:href="#m" transform="matrix(1,0,0,1,3624.982847660346,-1926.0151313777392) translate(0 26.200520833333336)"/><path d="M2720-2654a6 6 0 0 1 6-6h148a6 6 0 0 1 6 6v148a6 6 0 0 1-6 6h-148a6 6 0 0 1-6-6z" fill="#fff"/><path d="M2775.33-2660h49.34m24.66 0H2874a6 6 0 0 1 6 6v24.67m0 24.66v49.34m0 24.66v24.67a6 6 0 0 1-6 6h-24.67m-24.66 0h-49.34m-24.66 0H2726a6 6 0 0 1-6-6v-24.67m0-24.66v-49.34m0-24.66V-2654a6 6 0 0 1 6-6h24.67" stroke="#000" stroke-width="4" fill="none"/><use xlink:href="#n" transform="matrix(1,0,0,1,2725,-2655) translate(15.703125 86.77083333333334)"/><use xlink:href="#o" transform="matrix(1,0,0,1,2725,-2655) translate(71.09375 86.77083333333334)"/><use xlink:href="#p" transform="matrix(1,0,0,1,2725,-2655) translate(88.203125 86.77083333333334)"/><path d="M2993-1925.02a6 6 0 0 1 6-6h201.5a6 6 0 0 1 6 6v107.7a6 6 0 0 1-6 6H2999a6 6 0 0 1-6-6z" stroke="#000" stroke-width="4" fill="#fff"/><use xlink:href="#q" transform="matrix(1,0,0,1,2997.987639327012,-1926.0151313777392) translate(28.15885416666667 29.270833333333336)"/><use xlink:href="#r" transform="matrix(1,0,0,1,2997.987639327012,-1926.0151313777392) translate(27.65755208333333 67.98958333333334)"/><use xlink:href="#s" transform="matrix(1,0,0,1,2997.987639327012,-1926.0151313777392) translate(123.56901041666667 67.98958333333334)"/><use xlink:href="#t" transform="matrix(1,0,0,1,2997.987639327012,-1926.0151313777392) translate(68.015625 106.70833333333334)"/><path d="M3374.98-1925.02a6 6 0 0 1 6-6h201.5a6 6 0 0 1 6 6v107.7a6 6 0 0 1-6 6h-201.5a6 6 0 0 1-6-6z" stroke="#000" stroke-width="4" fill="#fff"/><use xlink:href="#q" transform="matrix(1,0,0,1,3379.982847660346,-1926.0151313777392) translate(28.15885416666667 29.270833333333336)"/><use xlink:href="#r" transform="matrix(1,0,0,1,3379.982847660346,-1926.0151313777392) translate(27.65755208333333 67.98958333333334)"/><use xlink:href="#s" transform="matrix(1,0,0,1,3379.982847660346,-1926.0151313777392) translate(123.56901041666667 67.98958333333334)"/><use xlink:href="#u" transform="matrix(1,0,0,1,3379.982847660346,-1926.0151313777392) translate(64.78645833333333 106.70833333333334)"/><path d="M2830.06-2362.8l.06.7.15.6.24.6.34.54.4.47.5.42.52.33.6.24.6.14.7.06h20.2v3.95H2834l-1.16-.1-1.22-.3-1.15-.47-1.07-.65-.96-.8-.8-.97-.66-1.06-.48-1.16-.3-1.22-.1-1.17v-22.3h3.96zm85.06 8.05h-40.5v-3.95h40.5zm162.08 0h-20.26v-3.95h20.26zm-40.52 0h-32.28v-3.95h32.28zm-206.62-52.4h-3.95v-44.43h3.96zm0-66.64h-3.95v-22.2h3.96z" stroke="#3a414a" stroke-width=".05" fill="#3a414a"/><path d="M2830.06-2495.95h-3.95v-2.05h3.96z" fill="#3a414a"/><path stroke="#3a414a" stroke-width=".05" fill="#3a414a"/><path d="M3093.46-2356.73l-14.26 4.64v-9.26z" fill="#3a414a"/><path d="M3099.85-2356.73l-22.63 7.36v-14.7zm-18.68 1.92l5.9-1.93-5.9-1.9z" stroke="#3a414a" stroke-width=".05" fill="#3a414a"/><g><use xlink:href="#v" transform="matrix(1,0,0,1,2933.3574303613527,-2372.8600114931924) translate(0 25.833333333333336)"/></g><path d="M2776.66-2118.08l.06.7.14.62.24.6.33.52.4.48.5.4.53.34.58.24.62.15.7.06h19v3.94h-19.15l-1.16-.1-1.22-.28-1.16-.5-1.07-.64-.96-.82-.8-.95-.67-1.08-.48-1.15-.3-1.22-.1-1.17V-2139h3.96zm80.33 8.05h-38.16v-3.94H2857zm57.22 0h-38.15v-3.94h38.15zm171.7 0h-38.16v-3.94h38.16zm57.23 0H3105v-3.94h38.15zm57.23 0h-38.15v-3.94h38.15zm57.23 0h-38.14v-3.94h38.15zm57.24 0h-38.15v-3.94h38.14zm38.16 0h-19.08v-3.94H3353zM2776.66-2160h-3.95v-42h3.96zm0-63h-3.95v-42h3.96zm0-63h-3.95v-42h3.96zm0-63h-3.95v-42h3.96zm0-63h-3.95v-42h3.96zm0-63h-3.95v-21h3.96z" stroke="#3a414a" stroke-width=".05" fill="#3a414a"/><path d="M2776.66-2495.95h-3.95v-2.05h3.96z" fill="#3a414a"/><path stroke="#3a414a" stroke-width=".05" fill="#3a414a"/><path d="M3369.26-2112l-14.26 4.64v-9.28z" fill="#3a414a"/><path d="M3375.65-2112l-22.63 7.35v-14.7zm-18.68 1.92l5.9-1.92-5.9-1.92z" stroke="#3a414a" stroke-width=".05" fill="#3a414a"/><g><use xlink:href="#w" transform="matrix(1,0,0,1,2921.062864256791,-2128.132735544406) translate(0 25.833333333333336)"/></g><defs><path d="M180 0v-1490h270l367 940c28 72 75 218 110 339 35-117 81-264 110-339l362-940h271V0h-187c2-448-5-837 7-1287-157 497-311 829-483 1287H842C666-458 514-784 354-1284c12 438 5 843 7 1284H180" id="x"/><use transform="matrix(0.013020833333333334,0,0,0.013020833333333334,0,0)" xlink:href="#x" id="a"/><path d="M338-1490V0H158v-1490h180" id="y"/><path d="M613 24c-304 0-509-231-509-576 0-350 205-580 509-580 305 0 511 230 511 580 0 345-206 576-511 576zm0-161c226 0 329-195 329-415 0-222-103-419-329-419-223 0-326 196-326 419 0 220 103 415 326 415" id="z"/><path d="M409 0L70-1118h191c89 329 165 560 243 925 75-353 154-601 240-925h192c85 325 161 564 235 922 77-354 157-598 244-922h191L1267 0h-179c-86-307-176-590-250-913C763-588 675-308 588 0H409" id="A"/><path d="M628 24c-324 0-524-230-524-574 0-343 198-582 503-582 237 0 487 146 487 559v75H286c9 234 145 362 343 362 132 0 231-58 273-172l174 48C1024-91 857 24 628 24zM287-650h624c-17-190-120-322-304-322-192 0-309 151-320 322" id="B"/><path d="M158 0v-1118h174v172h12c41-113 157-188 290-188 26 0 70 2 91 3v181c-11-2-60-10-108-10-161 0-279 109-279 260V0H158" id="C"/><g id="b"><use transform="matrix(0.013020833333333334,0,0,0.013020833333333334,0,0)" xlink:href="#y"/><use transform="matrix(0.013020833333333334,0,0,0.013020833333333334,6.458333333333334,0)" xlink:href="#z"/><use transform="matrix(0.013020833333333334,0,0,0.013020833333333334,21.966145833333336,0)" xlink:href="#A"/><use transform="matrix(0.013020833333333334,0,0,0.013020833333333334,43.30729166666667,0)" xlink:href="#B"/><use transform="matrix(0.013020833333333334,0,0,0.013020833333333334,58.85416666666667,0)" xlink:href="#C"/></g><path d="M158 418v-1536h174v179h20c37-59 106-193 324-193 279 0 474 222 474 576 0 356-194 580-473 580-213 0-288-135-325-197h-14v591H158zm492-555c209 0 317-186 317-421 0-232-105-413-317-413-206 0-314 166-314 413 0 249 111 421 314 421" id="D"/><path d="M158 0v-1118h180V0H158zm91-1301c-68 0-125-53-125-119s57-119 125-119c69 0 126 53 126 119s-57 119-126 119" id="E"/><path d="M481 0L54-1118h197c107 314 236 620 325 951 87-331 217-637 324-951h197L670 0H481" id="F"/><path d="M611 442c-248 0-391-105-460-228l146-94c47 65 117 165 314 165 178 0 307-82 307-266v-224h-17C863-141 792-18 576-18c-268 0-472-195-472-546 0-346 197-568 476-568 216 0 288 133 326 193h17v-179h175V29c0 289-215 413-487 413zm-5-620c203 0 314-146 314-390 0-237-108-403-314-403-213 0-319 180-319 403 0 230 109 390 319 390" id="G"/><g id="c"><use transform="matrix(0.013020833333333334,0,0,0.013020833333333334,0,0)" xlink:href="#D"/><use transform="matrix(0.013020833333333334,0,0,0.013020833333333334,16.328125,0)" xlink:href="#C"/><use transform="matrix(0.013020833333333334,0,0,0.013020833333333334,26.783854166666668,0)" xlink:href="#E"/><use transform="matrix(0.013020833333333334,0,0,0.013020833333333334,33.2421875,0)" xlink:href="#F"/><use transform="matrix(0.013020833333333334,0,0,0.013020833333333334,48.22916666666667,0)" xlink:href="#E"/><use transform="matrix(0.013020833333333334,0,0,0.013020833333333334,54.6875,0)" xlink:href="#y"/><use transform="matrix(0.013020833333333334,0,0,0.013020833333333334,61.14583333333335,0)" xlink:href="#B"/><use transform="matrix(0.013020833333333334,0,0,0.013020833333333334,76.69270833333334,0)" xlink:href="#G"/><use transform="matrix(0.013020833333333334,0,0,0.013020833333333334,93.04687500000001,0)" xlink:href="#B"/></g><path d="M158 0v-1118h175l1 205c55-151 181-225 313-225 147 0 245 90 285 228 53-141 190-228 352-228 194 0 352 125 352 384V0h-181v-749c0-161-105-225-225-225-151 0-243 103-243 244V0H807v-767c0-124-93-207-219-207-131 0-250 92-250 270V0H158" id="H"/><path d="M577 24c-279 0-473-224-473-580 0-354 195-576 474-576 218 0 287 134 324 193h14v-551h180V0H922v-173h-20C865-111 790 24 577 24zm27-161c203 0 314-172 314-421 0-247-108-413-314-413-212 0-317 181-317 413 0 235 108 421 317 421" id="I"/><path d="M538 24C308 24 148-78 108-271l171-41c32 123 123 178 257 178 156 0 256-77 256-169 0-77-54-128-164-154l-186-44c-203-48-300-148-300-305 0-192 176-326 414-326 230 0 351 112 402 269l-163 42c-31-80-94-158-238-158-133 0-233 69-233 162 0 83 57 129 188 160l169 40c203 48 298 149 298 302 0 196-179 339-441 339" id="J"/><g id="d"><use transform="matrix(0.013020833333333334,0,0,0.013020833333333334,0,0)" xlink:href="#H"/><use transform="matrix(0.013020833333333334,0,0,0.013020833333333334,23.359375,0)" xlink:href="#z"/><use transform="matrix(0.013020833333333334,0,0,0.013020833333333334,39.348958333333336,0)" xlink:href="#I"/><use transform="matrix(0.013020833333333334,0,0,0.013020833333333334,55.677083333333336,0)" xlink:href="#B"/><use transform="matrix(0.013020833333333334,0,0,0.013020833333333334,71.22395833333334,0)" xlink:href="#J"/></g><g id="e"><use transform="matrix(0.013020833333333334,0,0,0.013020833333333334,0,0)" xlink:href="#H"/><use transform="matrix(0.013020833333333334,0,0,0.013020833333333334,23.359375,0)" xlink:href="#y"/><use transform="matrix(0.013020833333333334,0,0,0.013020833333333334,29.817708333333336,0)" xlink:href="#A"/><use transform="matrix(0.013020833333333334,0,0,0.013020833333333334,51.640625,0)" xlink:href="#E"/><use transform="matrix(0.013020833333333334,0,0,0.013020833333333334,58.098958333333336,0)" xlink:href="#I"/></g><path fill="#333" d="M786 20C389 20 94-260 94-744c0-487 299-766 692-766 339 0 597 194 641 529h-309c-28-162-156-258-326-258-233 0-388 179-388 495 0 323 157 493 387 493 170 0 298-97 328-259h309c-34 277-266 530-642 530" id="K"/><path fill="#333" d="M681 22C323 22 94-145 85-462h297c10 151 131 226 296 226 163 0 271-77 271-190 0-102-95-149-257-189l-164-41c-252-61-403-188-403-405 0-269 236-449 560-449 330 0 546 183 551 445H941c-11-119-106-188-259-188-156 0-244 72-244 172-3 156 226 185 373 221 250 61 445 186 445 436 0 271-213 446-575 446" id="L"/><path fill="#333" d="M135 0v-1490h581c339 0 533 192 533 485 0 204-94 351-264 424L1302 0H964L680-532H440V0H135zm305-779h220c186 0 274-77 274-226 0-150-88-233-275-233H440v459" id="M"/><g id="f"><use transform="matrix(0.009765625,0,0,0.009765625,0,0)" xlink:href="#K"/><use transform="matrix(0.009765625,0,0,0.009765625,14.794921875,0)" xlink:href="#L"/><use transform="matrix(0.009765625,0,0,0.009765625,27.890625,0)" xlink:href="#M"/></g><path fill="#333" d="M628 22C291 22 81-210 81-554c0-346 210-578 547-578 336 0 547 232 547 578 0 344-211 576-547 576zm0-236c160 0 242-146 242-341 0-197-82-341-242-341S387-753 387-555c0 195 81 341 241 341" id="N"/><path fill="#333" d="M428-647V0H128v-1118h283l4 231c63-156 176-245 348-245 232 0 384 159 384 421V0H847v-659c0-139-76-222-202-222-128 0-217 86-217 234" id="O"/><path fill="#333" d="M683-1118v229H474v562c0 71 29 104 102 104 23 0 73-7 95-13l43 225C647 9 580 16 520 16 296 16 174-96 174-301v-588H20v-229h154v-266h300v266h209" id="P"/><path fill="#333" d="M128 0v-1118h290v195h12c54-169 184-238 367-200v268c-27-8-86-15-130-15-138 0-239 95-239 234V0H128" id="Q"/><path fill="#333" d="M428-1490V0H128v-1490h300" id="R"/><g id="g"><use transform="matrix(0.009765625,0,0,0.009765625,0,0)" xlink:href="#K"/><use transform="matrix(0.009765625,0,0,0.009765625,14.794921875,0)" xlink:href="#N"/><use transform="matrix(0.009765625,0,0,0.009765625,27.060546875,0)" xlink:href="#O"/><use transform="matrix(0.009765625,0,0,0.009765625,39.51171875,0)" xlink:href="#P"/><use transform="matrix(0.009765625,0,0,0.009765625,46.8359375,0)" xlink:href="#Q"/><use transform="matrix(0.009765625,0,0,0.009765625,54.4921875,0)" xlink:href="#N"/><use transform="matrix(0.009765625,0,0,0.009765625,66.7578125,0)" xlink:href="#R"/></g><path d="M598-1118v154H368v674c0 100 37 144 132 144 23 0 62-6 92-12L629-6c-37 13-88 20-134 20-193 0-307-107-307-290v-688H20v-154h168v-266h180v266h230" id="S"/><g id="h"><use transform="matrix(0.013020833333333334,0,0,0.013020833333333334,0,0)" xlink:href="#J"/><use transform="matrix(0.013020833333333334,0,0,0.013020833333333334,14.075520833333334,0)" xlink:href="#B"/><use transform="matrix(0.013020833333333334,0,0,0.013020833333333334,29.622395833333336,0)" xlink:href="#S"/></g><path d="M338-670V0H158v-1118h173l1 207c72-158 192-221 342-221 226 0 378 139 378 422V0H872v-695c0-172-96-275-252-275-161 0-282 109-282 300" id="T"/><g id="i"><use transform="matrix(0.013020833333333334,0,0,0.013020833333333334,0,0)" xlink:href="#E"/><use transform="matrix(0.013020833333333334,0,0,0.013020833333333334,6.458333333333334,0)" xlink:href="#T"/></g><path d="M383-449c-3-277 82-343 222-425 88-53 156-134 156-250 0-139-108-227-243-227-118 0-235 70-246 236H82c10-251 200-395 436-395 259 0 427 165 427 393 0 161-74 273-203 352-132 80-180 132-178 316H383zm93 462c-75 0-135-60-135-134 0-75 60-135 135-135 74 0 134 60 134 135 0 74-60 134-134 134" id="U"/><g id="j"><use transform="matrix(0.013020833333333334,0,0,0.013020833333333334,0,0)" xlink:href="#H"/><use transform="matrix(0.013020833333333334,0,0,0.013020833333333334,23.359375,0)" xlink:href="#A"/><use transform="matrix(0.013020833333333334,0,0,0.013020833333333334,45.18229166666667,0)" xlink:href="#E"/><use transform="matrix(0.013020833333333334,0,0,0.013020833333333334,51.64062500000001,0)" xlink:href="#I"/><use transform="matrix(0.013020833333333334,0,0,0.013020833333333334,67.96875,0)" xlink:href="#y"/><use transform="matrix(0.013020833333333334,0,0,0.013020833333333334,74.42708333333333,0)" xlink:href="#E"/><use transform="matrix(0.013020833333333334,0,0,0.013020833333333334,80.88541666666666,0)" xlink:href="#J"/><use transform="matrix(0.013020833333333334,0,0,0.013020833333333334,94.96093749999999,0)" xlink:href="#S"/><use transform="matrix(0.013020833333333334,0,0,0.013020833333333334,103.68489583333331,0)" xlink:href="#U"/></g><path fill="#333" d="M601 0v-560L49-1490h357l252 464c38 68 67 130 97 208 96-243 225-446 337-672h356L905-560V0H601" id="V"/><path fill="#333" d="M633 22C291 22 81-200 81-553c0-345 210-579 537-579 292 0 525 185 525 567v84H378c7 183 109 277 260 277 105 0 184-46 216-132l272 51C1071-99 893 22 633 22zM380-669h474c-15-146-94-237-233-237-143 0-229 99-241 237" id="W"/><path fill="#333" d="M572 22C302 22 117-98 78-306l279-48c29 105 101 156 224 156 114 0 185-48 185-115 0-118-228-130-337-155-215-49-322-150-322-317 0-215 187-347 470-347 265 0 424 116 466 298l-266 47c-24-76-87-130-196-130-98 0-174 46-174 113 0 56 38 95 144 117l201 40c216 44 320 143 320 302 0 220-207 367-500 367" id="X"/><g id="k"><use transform="matrix(0.013020833333333334,0,0,0.013020833333333334,0,0)" xlink:href="#V"/><use transform="matrix(0.013020833333333334,0,0,0.013020833333333334,16.575520833333332,0)" xlink:href="#W"/><use transform="matrix(0.013020833333333334,0,0,0.013020833333333334,32.4609375,0)" xlink:href="#X"/></g><path fill="#333" d="M135 0v-1490h340l471 754c59 97 122 210 187 365-32-387-14-721-19-1119h312V0h-341C855-382 627-689 427-1113c32 420 16 695 20 1113H135" id="Y"/><g id="l"><use transform="matrix(0.013020833333333334,0,0,0.013020833333333334,0,0)" xlink:href="#Y"/><use transform="matrix(0.013020833333333334,0,0,0.013020833333333334,20.325520833333336,0)" xlink:href="#N"/></g><path d="M65 0l393-574-370-544h210c88 136 192 297 267 435 67-142 176-302 264-435h206L661-564 1053 0H844c-94-144-206-310-287-458C484-308 366-142 273 0H65" id="Z"/><path d="M613 24c-304 0-509-231-509-576 0-350 205-580 509-580 216 0 392 114 453 309l-173 49c-33-115-133-197-280-197-223 0-326 196-326 419 0 220 103 415 326 415 150 0 252-85 285-206l172 49C1010-95 832 24 613 24" id="aa"/><g id="m"><use transform="matrix(0.013020833333333334,0,0,0.013020833333333334,0,0)" xlink:href="#B"/><use transform="matrix(0.013020833333333334,0,0,0.013020833333333334,14.947916666666668,0)" xlink:href="#Z"/><use transform="matrix(0.013020833333333334,0,0,0.013020833333333334,28.90625,0)" xlink:href="#aa"/><use transform="matrix(0.013020833333333334,0,0,0.013020833333333334,44.140625,0)" xlink:href="#B"/><use transform="matrix(0.013020833333333334,0,0,0.013020833333333334,59.6875,0)" xlink:href="#D"/><use transform="matrix(0.013020833333333334,0,0,0.013020833333333334,76.015625,0)" xlink:href="#S"/><use transform="matrix(0.013020833333333334,0,0,0.013020833333333334,84.73958333333333,0)" xlink:href="#E"/><use transform="matrix(0.013020833333333334,0,0,0.013020833333333334,91.19791666666666,0)" xlink:href="#z"/><use transform="matrix(0.013020833333333334,0,0,0.013020833333333334,107.18749999999999,0)" xlink:href="#T"/></g><path d="M180 0v-1490h510c348 0 508 194 508 460 0 198-88 351-276 417L1256 0h-220L726-579c-117 2-238 0-356 1V0H180zm190-747h312c235 0 327-108 327-283 0-177-92-293-329-293H370v576" id="ab"/><path d="M98-1322v-168h1126v168H757V0H567v-1322H98" id="ac"/><g id="n"><use transform="matrix(0.013020833333333334,0,0,0.013020833333333334,0,0)" xlink:href="#ab"/><use transform="matrix(0.013020833333333334,0,0,0.013020833333333334,16.770833333333336,0)" xlink:href="#z"/><use transform="matrix(0.013020833333333334,0,0,0.013020833333333334,30.677083333333336,0)" xlink:href="#ac"/></g><path d="M692-1560L212 224H46l480-1784h166" id="ad"/><use transform="matrix(0.013020833333333334,0,0,0.013020833333333334,0,0)" xlink:href="#ad" id="o"/><path d="M180 0v-1490h190v644h782v-644h190V0h-190v-678H370V0H180" id="ae"/><path d="M458 0L52-1490h194c108 439 233 855 324 1313 92-459 221-873 331-1313h216c110 438 234 854 330 1307 92-455 216-869 323-1307h196L1558 0h-221l-256-944c-26-95-50-200-73-331-22 122-44 223-73 331L680 0H458" id="af"/><g id="p"><use transform="matrix(0.013020833333333334,0,0,0.013020833333333334,0,0)" xlink:href="#ae"/><use transform="matrix(0.013020833333333334,0,0,0.013020833333333334,19.817708333333336,0)" xlink:href="#af"/></g><path d="M471 26C259 26 90-98 90-318c0-256 228-303 435-329 202-27 287-16 287-108 0-139-79-219-234-219-161 0-248 86-283 164l-173-57c86-203 278-265 451-265 150 0 419 46 419 395V0H815v-152h-12C765-73 660 26 471 26zm31-159c199 0 310-134 310-271v-155c-30 35-226 55-295 64-131 17-246 59-246 186 0 116 97 176 231 176" id="ag"/><g id="q"><use transform="matrix(0.013020833333333334,0,0,0.013020833333333334,0,0)" xlink:href="#ac"/><use transform="matrix(0.013020833333333334,0,0,0.013020833333333334,15.703125,0)" xlink:href="#C"/><use transform="matrix(0.013020833333333334,0,0,0.013020833333333334,25.7421875,0)" xlink:href="#ag"/><use transform="matrix(0.013020833333333334,0,0,0.013020833333333334,40.716145833333336,0)" xlink:href="#T"/><use transform="matrix(0.013020833333333334,0,0,0.013020833333333334,56.47135416666667,0)" xlink:href="#J"/><use transform="matrix(0.013020833333333334,0,0,0.013020833333333334,70.546875,0)" xlink:href="#ag"/><use transform="matrix(0.013020833333333334,0,0,0.013020833333333334,85.52083333333333,0)" xlink:href="#aa"/><use transform="matrix(0.013020833333333334,0,0,0.013020833333333334,100.75520833333333,0)" xlink:href="#S"/><use transform="matrix(0.013020833333333334,0,0,0.013020833333333334,109.47916666666664,0)" xlink:href="#E"/><use transform="matrix(0.013020833333333334,0,0,0.013020833333333334,115.93749999999999,0)" xlink:href="#z"/><use transform="matrix(0.013020833333333334,0,0,0.013020833333333334,131.92708333333331,0)" xlink:href="#T"/></g><g id="r"><use transform="matrix(0.013020833333333334,0,0,0.013020833333333334,0,0)" xlink:href="#S"/><use transform="matrix(0.013020833333333334,0,0,0.013020833333333334,8.854166666666668,0)" xlink:href="#ag"/><use transform="matrix(0.013020833333333334,0,0,0.013020833333333334,23.828125,0)" xlink:href="#G"/><use transform="matrix(0.013020833333333334,0,0,0.013020833333333334,40.18229166666667,0)" xlink:href="#G"/><use transform="matrix(0.013020833333333334,0,0,0.013020833333333334,56.53645833333335,0)" xlink:href="#B"/><use transform="matrix(0.013020833333333334,0,0,0.013020833333333334,72.08333333333334,0)" xlink:href="#I"/></g><path d="M338-670V0H158v-1490h180v566c73-149 190-208 336-208 226 0 379 139 379 422V0H872v-695c0-172-96-275-252-275-161 0-282 109-282 300" id="ah"/><g id="s"><use transform="matrix(0.013020833333333334,0,0,0.013020833333333334,0,0)" xlink:href="#A"/><use transform="matrix(0.013020833333333334,0,0,0.013020833333333334,21.822916666666668,0)" xlink:href="#E"/><use transform="matrix(0.013020833333333334,0,0,0.013020833333333334,28.28125,0)" xlink:href="#S"/><use transform="matrix(0.013020833333333334,0,0,0.013020833333333334,37.005208333333336,0)" xlink:href="#ah"/></g><g id="t"><use transform="matrix(0.013020833333333334,0,0,0.013020833333333334,0,0)" xlink:href="#H"/><use transform="matrix(0.013020833333333334,0,0,0.013020833333333334,23.359375,0)" xlink:href="#A"/><use transform="matrix(0.013020833333333334,0,0,0.013020833333333334,45.18229166666667,0)" xlink:href="#E"/><use transform="matrix(0.013020833333333334,0,0,0.013020833333333334,51.64062500000001,0)" xlink:href="#I"/></g><g id="u"><use transform="matrix(0.013020833333333334,0,0,0.013020833333333334,0,0)" xlink:href="#H"/><use transform="matrix(0.013020833333333334,0,0,0.013020833333333334,23.359375,0)" xlink:href="#y"/><use transform="matrix(0.013020833333333334,0,0,0.013020833333333334,29.817708333333336,0)" xlink:href="#A"/><use transform="matrix(0.013020833333333334,0,0,0.013020833333333334,51.640625,0)" xlink:href="#E"/><use transform="matrix(0.013020833333333334,0,0,0.013020833333333334,58.098958333333336,0)" xlink:href="#I"/></g><path fill="#333" d="M128 0v-1118h278l12 217c60-163 185-234 319-234 143 0 236 81 288 251 63-172 205-251 359-251 205 0 357 138 357 381V0h-301v-697c0-126-76-187-177-187-114 0-184 79-184 196V0H789v-705c0-109-72-179-174-179-106 0-187 74-187 208V0H128" id="ai"/><path fill="#333" d="M361 0L31-1118h315c68 295 127 523 188 845 63-317 128-551 199-845h276c71 296 131 525 196 846 57-321 119-552 186-846h319L1378 0h-305c-73-261-148-486-204-771C813-484 740-261 666 0H361" id="aj"/><path fill="#333" d="M128 0v-1118h300V0H128zm150-1264c-91 0-165-68-165-154 0-85 74-154 165-154 90 0 165 69 165 154 0 86-75 154-165 154" id="ak"/><path fill="#333" d="M537 19C279 19 81-185 81-557c0-382 206-575 454-575 190 0 278 113 318 202h10v-560h300V0H868v-179h-15C812-89 719 19 537 19zm92-241c153 0 240-134 240-336 0-203-86-334-240-334-158 0-240 138-240 334 0 197 84 336 240 336" id="al"/><g id="v"><use transform="matrix(0.013020833333333334,0,0,0.013020833333333334,0,0)" xlink:href="#ai"/><use transform="matrix(0.013020833333333334,0,0,0.013020833333333334,24.3359375,0)" xlink:href="#aj"/><use transform="matrix(0.013020833333333334,0,0,0.013020833333333334,47.005208333333336,0)" xlink:href="#ak"/><use transform="matrix(0.013020833333333334,0,0,0.013020833333333334,54.231770833333336,0)" xlink:href="#al"/></g><g id="w"><use transform="matrix(0.013020833333333334,0,0,0.013020833333333334,0,0)" xlink:href="#ai"/><use transform="matrix(0.013020833333333334,0,0,0.013020833333333334,24.3359375,0)" xlink:href="#aj"/><use transform="matrix(0.013020833333333334,0,0,0.013020833333333334,47.005208333333336,0)" xlink:href="#ak"/><use transform="matrix(0.013020833333333334,0,0,0.013020833333333334,54.231770833333336,0)" xlink:href="#al"/><use transform="matrix(0.013020833333333334,0,0,0.013020833333333334,71.04166666666667,0)" xlink:href="#R"/><use transform="matrix(0.013020833333333334,0,0,0.013020833333333334,78.26822916666667,0)" xlink:href="#ak"/><use transform="matrix(0.013020833333333334,0,0,0.013020833333333334,85.49479166666667,0)" xlink:href="#X"/><use transform="matrix(0.013020833333333334,0,0,0.013020833333333334,100.4296875,0)" xlink:href="#P"/></g></defs></g></svg>